# xmcd
#
# Track frame offsets:
# 150
# 58428
# 103322
# 142901
# 156991
# 177662
# 199746
# 219093
# 235442
# 255903
# 285576
# 301841
# 323383
# 340396
#
# Disc length: 4716 seconds
#
# Revision: 0
# Processed by: cddbd v1.5.1PL0 Copyright (c) Steve Scherf et al.
# Submitted via: Audion 3.0.2 (http://www.panic.com/audion/)
#
DISCID=cd126a0e
DTITLE=asdfsf - Mix
DYEAR=1900
DGENRE=
TTITLE0=Mount on Bald Mountain
TTITLE1=Poet and Peasent
TTITLE2=Mount on bald mountain
TTITLE3=cheer song
TTITLE4=ice ice baby
TTITLE5=Just want you to know who i am
TTITLE6=slacker
TTITLE7=goo goo doll song
TTITLE8=Listen to your heart
TTITLE9=shout
TTITLE10=tatoo
TTITLE11=chelseys choir song
TTITLE12=bass song
TTITLE13=cheer song 2
EXTD=
EXTT0=
EXTT1=
EXTT2=
EXTT3=
EXTT4=
EXTT5=
EXTT6=
EXTT7=
EXTT8=
EXTT9=
EXTT10=
EXTT11=
EXTT12=
EXTT13=
PLAYORDER=
